<?xml version="1.0" standalone="no"?>
<!DOCTYPE svg PUBLIC "-//W3C//DTD SVG 20010904//EN"
 "http://www.w3.org/TR/2001/REC-SVG-20010904/DTD/svg10.dtd">
<svg version="1.0" xmlns="http://www.w3.org/2000/svg"
 width="700.000000pt" height="700.000000pt" viewBox="0 0 700.000000 700.000000"
 preserveAspectRatio="xMidYMid meet">
<metadata>
Created by potrace 1.14, written by Peter Selinger 2001-2017
</metadata>
<g transform="translate(0.000000,700.000000) scale(0.100000,-0.100000)"
fill="#000000" stroke="none">
<path d="M3377 6834 c-1 -1 -51 -4 -112 -8 -60 -3 -119 -8 -130 -10 -11 -2
-47 -7 -80 -10 -75 -9 -112 -15 -150 -23 -16 -3 -37 -7 -45 -8 -33 -5 -80 -16
-190 -45 -63 -16 -125 -32 -137 -35 -41 -10 -269 -93 -353 -129 -570 -246
-1077 -660 -1425 -1162 -41 -60 -78 -114 -82 -120 -29 -39 -142 -245 -186
-336 -73 -154 -85 -179 -117 -268 -64 -171 -137 -421 -155 -532 -3 -18 -10
-58 -15 -88 -5 -30 -12 -73 -15 -95 -4 -22 -8 -50 -10 -62 -26 -162 -27 -601
-1 -813 5 -41 18 -134 21 -150 35 -190 38 -202 70 -324 91 -344 262 -716 464
-1011 406 -593 993 -1045 1661 -1279 211 -74 493 -141 685 -162 33 -3 62 -8
65 -9 9 -6 269 -18 375 -18 167 0 350 16 555 48 170 26 463 107 640 177 274
108 491 226 760 415 176 123 455 385 600 563 25 30 49 60 55 67 127 154 264
369 371 584 67 135 104 218 104 235 0 8 4 14 10 14 5 0 9 3 8 8 -3 6 33 112
53 157 23 53 99 337 114 428 3 17 8 39 10 47 2 8 6 33 9 55 3 22 9 57 12 78
22 137 29 261 29 482 -1 236 -7 326 -35 500 -24 149 -29 173 -60 305 -31 134
-114 383 -151 452 -5 10 -9 22 -9 27 0 15 -103 229 -161 333 -193 349 -492
707 -799 958 -30 25 -57 47 -60 50 -9 9 -113 86 -180 132 -200 140 -525 306
-745 383 -27 9 -59 21 -70 25 -106 44 -436 121 -615 144 -19 3 -55 7 -80 11
-106 13 -491 28 -503 19z"/>
</g>
</svg>
