<?xml version="1.0" standalone="no"?>
<!DOCTYPE svg PUBLIC "-//W3C//DTD SVG 20010904//EN"
 "http://www.w3.org/TR/2001/REC-SVG-20010904/DTD/svg10.dtd">
<svg version="1.0" xmlns="http://www.w3.org/2000/svg"
 width="700.000000pt" height="700.000000pt" viewBox="0 0 700.000000 700.000000"
 preserveAspectRatio="xMidYMid meet">
<metadata>
Created by potrace 1.14, written by Peter Selinger 2001-2017
</metadata>
<g transform="translate(0.000000,700.000000) scale(0.100000,-0.100000)"
fill="#000000" stroke="none">
<path d="M3265 6829 c-126 -10 -214 -20 -274 -30 -31 -6 -69 -12 -84 -14 -116
-17 -383 -88 -527 -140 -643 -231 -1177 -630 -1593 -1192 -341 -462 -570
-1068 -624 -1654 -13 -134 -9 -573 6 -689 86 -693 344 -1283 787 -1800 483
-564 1113 -939 1844 -1099 111 -24 192 -38 275 -47 33 -3 62 -8 65 -9 9 -6
269 -18 375 -18 167 0 350 16 555 48 170 26 463 107 640 177 274 108 491 226
760 415 176 123 455 385 600 563 25 30 49 60 55 67 5 7 15 18 21 25 114 139
300 440 382 618 69 150 79 173 120 285 77 212 146 491 172 695 6 47 13 101 16
120 10 63 12 543 4 625 -34 308 -73 497 -152 744 -165 509 -435 949 -822 1337
-551 551 -1238 878 -2026 965 -121 13 -458 18 -575 8z"/>
</g>
</svg>
